<mxfile host="Electron" modified="2024-02-22T00:18:47.035Z" agent="Mozilla/5.0 (Windows NT 10.0; Win64; x64) AppleWebKit/537.36 (KHTML, like Gecko) draw.io/23.0.2 Chrome/120.0.6099.109 Electron/28.1.0 Safari/537.36" etag="qG03e6fZkldUXF0YyWPK" version="23.0.2" type="device">
  <diagram name="Page-1" id="9Qs7OMIDl1wZY02dkdm2">
    <mxGraphModel dx="5672" dy="3352" grid="1" gridSize="10" guides="1" tooltips="1" connect="1" arrows="1" fold="1" page="1" pageScale="1" pageWidth="850" pageHeight="1400" math="0" shadow="0">
      <root>
        <mxCell id="0" />
        <mxCell id="1" parent="0" />
        <mxCell id="-jd5CLTu6TDKMiXwwL5O-1" value="" style="rounded=0;whiteSpace=wrap;html=1;sketch=1;hachureGap=4;jiggle=2;curveFitting=1;fontFamily=Architects Daughter;fontSource=https%3A%2F%2Ffonts.googleapis.com%2Fcss%3Ffamily%3DArchitects%2BDaughter;fontSize=20;" vertex="1" parent="1">
          <mxGeometry x="40" y="40" width="1590" height="3090" as="geometry" />
        </mxCell>
        <mxCell id="-jd5CLTu6TDKMiXwwL5O-16" value="Bio" style="rounded=0;whiteSpace=wrap;html=1;sketch=1;hachureGap=4;jiggle=2;curveFitting=1;fontFamily=Architects Daughter;fontSource=https%3A%2F%2Ffonts.googleapis.com%2Fcss%3Ffamily%3DArchitects%2BDaughter;fontSize=70;" vertex="1" parent="1">
          <mxGeometry x="50" y="170" width="450" height="170" as="geometry" />
        </mxCell>
        <mxCell id="-jd5CLTu6TDKMiXwwL5O-18" value="Ther would be a ton of words in here but you can click in here and type without having to enable it with a seperate button" style="rounded=0;whiteSpace=wrap;html=1;sketch=1;hachureGap=4;jiggle=2;curveFitting=1;fontFamily=Architects Daughter;fontSource=https%3A%2F%2Ffonts.googleapis.com%2Fcss%3Ffamily%3DArchitects%2BDaughter;fontSize=70;" vertex="1" parent="1">
          <mxGeometry x="50" y="340" width="1570" height="400" as="geometry" />
        </mxCell>
        <mxCell id="-jd5CLTu6TDKMiXwwL5O-20" value="Username" style="rounded=0;whiteSpace=wrap;html=1;sketch=1;hachureGap=4;jiggle=2;curveFitting=1;fontFamily=Architects Daughter;fontSource=https%3A%2F%2Ffonts.googleapis.com%2Fcss%3Ffamily%3DArchitects%2BDaughter;fontSize=70;" vertex="1" parent="1">
          <mxGeometry x="60" y="180" width="450" height="170" as="geometry" />
        </mxCell>
        <mxCell id="-jd5CLTu6TDKMiXwwL5O-21" value="giant input box that will autofill for the useranme but not the password" style="rounded=0;whiteSpace=wrap;html=1;sketch=1;hachureGap=4;jiggle=2;curveFitting=1;fontFamily=Architects Daughter;fontSource=https%3A%2F%2Ffonts.googleapis.com%2Fcss%3Ffamily%3DArchitects%2BDaughter;fontSize=70;" vertex="1" parent="1">
          <mxGeometry x="60" y="350" width="1570" height="400" as="geometry" />
        </mxCell>
        <mxCell id="-jd5CLTu6TDKMiXwwL5O-22" value="UPDATE" style="rounded=1;whiteSpace=wrap;html=1;sketch=1;hachureGap=4;jiggle=2;curveFitting=1;fontFamily=Architects Daughter;fontSource=https%3A%2F%2Ffonts.googleapis.com%2Fcss%3Ffamily%3DArchitects%2BDaughter;fontSize=70;arcSize=50;strokeWidth=2;" vertex="1" parent="1">
          <mxGeometry x="125" y="940" width="320" height="135" as="geometry" />
        </mxCell>
        <mxCell id="-jd5CLTu6TDKMiXwwL5O-31" value="&lt;font style=&quot;font-size: 70px;&quot;&gt;View Past Orders&lt;/font&gt;" style="rounded=1;whiteSpace=wrap;html=1;sketch=1;hachureGap=4;jiggle=2;curveFitting=1;fontFamily=Architects Daughter;fontSource=https%3A%2F%2Ffonts.googleapis.com%2Fcss%3Ffamily%3DArchitects%2BDaughter;fontSize=70;arcSize=50;" vertex="1" parent="1">
          <mxGeometry x="220" y="2530" width="1220" height="300" as="geometry" />
        </mxCell>
        <mxCell id="-jd5CLTu6TDKMiXwwL5O-33" value="Input current Password" style="rounded=0;whiteSpace=wrap;html=1;sketch=1;hachureGap=4;jiggle=2;curveFitting=1;fontFamily=Architects Daughter;fontSource=https%3A%2F%2Ffonts.googleapis.com%2Fcss%3Ffamily%3DArchitects%2BDaughter;fontSize=70;" vertex="1" parent="1">
          <mxGeometry x="60" y="750" width="480" height="170" as="geometry" />
        </mxCell>
        <mxCell id="-jd5CLTu6TDKMiXwwL5O-34" value="" style="rounded=0;whiteSpace=wrap;html=1;sketch=1;hachureGap=4;jiggle=2;curveFitting=1;fontFamily=Architects Daughter;fontSource=https%3A%2F%2Ffonts.googleapis.com%2Fcss%3Ffamily%3DArchitects%2BDaughter;fontSize=70;" vertex="1" parent="1">
          <mxGeometry x="540" y="750" width="1090" height="170" as="geometry" />
        </mxCell>
        <mxCell id="-jd5CLTu6TDKMiXwwL5O-35" value="Bio" style="rounded=0;whiteSpace=wrap;html=1;sketch=1;hachureGap=4;jiggle=2;curveFitting=1;fontFamily=Architects Daughter;fontSource=https%3A%2F%2Ffonts.googleapis.com%2Fcss%3Ffamily%3DArchitects%2BDaughter;fontSize=70;" vertex="1" parent="1">
          <mxGeometry x="50" y="1280" width="450" height="170" as="geometry" />
        </mxCell>
        <mxCell id="-jd5CLTu6TDKMiXwwL5O-36" value="Ther would be a ton of words in here but you can click in here and type without having to enable it with a seperate button" style="rounded=0;whiteSpace=wrap;html=1;sketch=1;hachureGap=4;jiggle=2;curveFitting=1;fontFamily=Architects Daughter;fontSource=https%3A%2F%2Ffonts.googleapis.com%2Fcss%3Ffamily%3DArchitects%2BDaughter;fontSize=70;" vertex="1" parent="1">
          <mxGeometry x="50" y="1450" width="1570" height="400" as="geometry" />
        </mxCell>
        <mxCell id="-jd5CLTu6TDKMiXwwL5O-37" value="Password" style="rounded=0;whiteSpace=wrap;html=1;sketch=1;hachureGap=4;jiggle=2;curveFitting=1;fontFamily=Architects Daughter;fontSource=https%3A%2F%2Ffonts.googleapis.com%2Fcss%3Ffamily%3DArchitects%2BDaughter;fontSize=70;" vertex="1" parent="1">
          <mxGeometry x="60" y="1290" width="450" height="170" as="geometry" />
        </mxCell>
        <mxCell id="-jd5CLTu6TDKMiXwwL5O-38" value="giant input box that will autofill for the useranme but not the password" style="rounded=0;whiteSpace=wrap;html=1;sketch=1;hachureGap=4;jiggle=2;curveFitting=1;fontFamily=Architects Daughter;fontSource=https%3A%2F%2Ffonts.googleapis.com%2Fcss%3Ffamily%3DArchitects%2BDaughter;fontSize=70;" vertex="1" parent="1">
          <mxGeometry x="60" y="1460" width="1570" height="400" as="geometry" />
        </mxCell>
        <mxCell id="-jd5CLTu6TDKMiXwwL5O-39" value="UPDATE" style="rounded=1;whiteSpace=wrap;html=1;sketch=1;hachureGap=4;jiggle=2;curveFitting=1;fontFamily=Architects Daughter;fontSource=https%3A%2F%2Ffonts.googleapis.com%2Fcss%3Ffamily%3DArchitects%2BDaughter;fontSize=70;arcSize=50;strokeWidth=2;" vertex="1" parent="1">
          <mxGeometry x="125" y="2050" width="320" height="135" as="geometry" />
        </mxCell>
        <mxCell id="-jd5CLTu6TDKMiXwwL5O-40" value="Input current Password" style="rounded=0;whiteSpace=wrap;html=1;sketch=1;hachureGap=4;jiggle=2;curveFitting=1;fontFamily=Architects Daughter;fontSource=https%3A%2F%2Ffonts.googleapis.com%2Fcss%3Ffamily%3DArchitects%2BDaughter;fontSize=70;" vertex="1" parent="1">
          <mxGeometry x="60" y="1860" width="480" height="170" as="geometry" />
        </mxCell>
        <mxCell id="-jd5CLTu6TDKMiXwwL5O-41" value="" style="rounded=0;whiteSpace=wrap;html=1;sketch=1;hachureGap=4;jiggle=2;curveFitting=1;fontFamily=Architects Daughter;fontSource=https%3A%2F%2Ffonts.googleapis.com%2Fcss%3Ffamily%3DArchitects%2BDaughter;fontSize=70;" vertex="1" parent="1">
          <mxGeometry x="540" y="1860" width="1090" height="170" as="geometry" />
        </mxCell>
      </root>
    </mxGraphModel>
  </diagram>
</mxfile>
